# AST/ASF file generated using VICON BodyLanguage
# -----------------------------------------------
:version 1.10
:name VICON
:units
  mass 1.0
  length 0.45
  angle deg
:documentation
   .ast/.asf automatically generated from VICON data using
   VICON BodyBuilder and BodyLanguage model FoxedUp or BRILLIANT.MOD
:root
   order TX TY TZ RX RY RZ
   axis XYZ
   position 0 0 0  
   orientation 0 0 0 
:bonedata
  begin
     id 1 
     name lhipjoint
     direction 0.573633 -0.743009 0.344793 
     length 2.46257 
     axis 0 0 0  XYZ
  end
  begin
     id 2 
     name lfemur
     direction 0.34202 -0.939693 0  
     length 7.3842  
     axis 0 0 20  XYZ
    dof rx ry rz
    limits (-160.0 20.0)
           (-70.0 70.0)
           (-60.0 70.0)
  end
  begin
     id 3 
     name ltibia
     direction 0.34202 -0.939693 0   
     length 7.50407   
     axis 0 0 20   XYZ
    dof rx
    limits (-10.0 170.0)
  end
  begin
     id 4 
     name lfoot
     direction 0.110749 -0.304281 0.946123   
     length 1.95925   
     axis -90 7.62852e-016 20   XYZ
    dof rx rz
    limits (-45.0 90.0)
           (-70.0 20.0)
  end
  begin
     id 5 
     name ltoes
     direction 1.53554e-011 -4.21843e-011 1   
     length 0.978318   
     axis -90 7.62852e-016 20   XYZ
    dof rx
    limits (-90.0 20.0)
  end
  begin
     id 6 
     name rhipjoint
     direction -0.488109 -0.791693 0.367385   
     length 2.31113  
     axis 0 0 0  XYZ 
  end
  begin
     id 7 
     name rfemur
     direction -0.34202 -0.939693 0   
     length 7.40965   
     axis 0 0 -20   XYZ
    dof rx ry rz
    limits (-160.0 20.0)
           (-70.0 70.0)
           (-70.0 60.0)
  end
  begin
     id 8 
     name rtibia
     direction -0.34202 -0.939693 0   
     length 7.55548   
     axis 0 0 -20   XYZ
    dof rx
    limits (-10.0 170.0)
 end
 begin
     id 9 
     name rfoot
     direction -0.127594 -0.350561 0.927808   
     length 2.07199  
     axis -90 -7.62852e-016 -20   XYZ
    dof rx rz
    limits (-45.0 90.0)
           (-20.0 70.0)
  end
  begin
     id 10 
     name rtoes
     direction -1.53542e-011 -4.21909e-011 1   
     length 1.02667   
     axis -90 -7.62852e-016 -20   XYZ
    dof rx
    limits (-90.0 20.0)
  end
  begin
     id 11 
     name lowerback
     direction -0.0103342 0.997298 -0.0727278   
     length 2.02836   
     axis 0 0 0   XYZ
    dof rx ry rz
    limits (-20.0 45.0)
           (-30.0 30.0)
           (-30.0 30.0)
  end
  begin
     id 12 
     name upperback
     direction 0.0171146 0.999786 -0.011606   
     length 2.03179   
     axis 0 0 0   XYZ
    dof rx ry rz
    limits (-20.0 45.0)
           (-30.0 30.0)
           (-30.0 30.0)
  end
  begin
     id 13 
     name thorax
     direction 0.0216927 0.999513 0.0224343   
     length 2.03882   
     axis 0 0 0   XYZ
    dof rx ry rz
    limits (-20.0 45.0)
           (-30.0 30.0)
           (-30.0 30.0)
  end
  begin
     id 14 
     name lowerneck
     direction 0.000989287 0.993907 0.110221   
     length 1.75428   
     axis 0 0 0   XYZ
    dof rx ry rz
    limits (-20.0 45.0)
           (-30.0 30.0)
           (-30.0 30.0)
  end
  begin
     id 15 
     name upperneck
     direction -0.0172474 0.994813 -0.100253   
     length 1.77058   
     axis 0 0 0   XYZ
    dof rx ry rz
    limits (-20.0 45.0)
           (-30.0 30.0)
           (-30.0 30.0)
  end
  begin
     id 16
     name head
     direction -0.00486455 0.99894 -0.0457663  
     length 1.77427  
     axis 0 0 0   XYZ
    dof rx ry rz
    limits (-20.0 45.0)
           (-30.0 30.0)
           (-30.0 30.0)
  end
  begin
     id 17 
     name lclavicle
     direction 0.927314 0.333734 -0.169441  
     length 3.97584  
     axis 0 0 0   XYZ
    dof ry rz
    limits (-20.0 10.0)
           (0.0 20.0)
  end
  begin
     id 18 
     name lhumerus
     direction 1 -4.48965e-011 -3.25313e-028   
     length 4.76468   
     axis 180 -30 -90   XYZ
    dof rx ry rz
    limits (-60.0 90.0)
           (-90.0 90.0)
           (-90.0 90.0)
  end
  begin
     id 19
     name lradius
     direction 1 -4.48969e-011 -2.8465e-028   
     length 3.52712   
     axis -180 -30 -90   XYZ
    dof rx
    limits (-10.0 170.0)
  end
  begin
     id 20
     name lwrist
     direction 1 -4.4896e-011 -7.78665e-028   
     length 1.76356   
     axis 1.91374e-015 90 90   XYZ
    dof ry
    limits (-180.0 0.0)
 end
  begin
     id 21 
     name lhand
     direction 1 -4.48959e-011 -1.55733e-027   
     length 0.859564   
     axis 9.9371e-016 90 90   XYZ
    dof rx rz
    limits (-90.0 90.0)
           (-45.0 45.0)
  end
  begin
     id 22 
     name lfingers
     direction 1 -4.48965e-011 -3.11466e-027   
     length 0.693002   
     axis 1.98742e-015 90 90   XYZ
    dof rx
    limits (0.0 90.0)
  end
  begin
     id 23
     name lthumb
     direction 0.707107 -6.34948e-011 0.707107   
     length 0.995017   
     axis -90 45 2.85299e-015   XYZ
    dof rx rz
    limits (-45.0 45.0)
           (-45.0 45.0)
  end
  begin
     id 24 
     name rclavicle
     direction -0.899388 0.348209 -0.264294   
     length 3.68366  
     axis 0 0 0   XYZ 
    dof ry rz
    limits (-10.0 20.0)
           (-20.0 0.0)
  end
  begin
     id 25 
     name rhumerus
     direction -1 -4.48965e-011 -3.01536e-027  
     length 4.90577   
     axis 180 30 90   XYZ
    dof rx ry rz
    limits (-90.0 60.0)
           (-90.0 90.0)
           (-90.0 90.0)
  end
  begin
     id 26 
     name rradius
     direction -1 -4.48966e-011 3.93291e-027   
     length 3.42692   
     axis -180 30 90   XYZ
    dof rx
    limits (-10.0 170.0)
  end
  begin
     id 27 
     name rwrist
     direction -1 -4.48969e-011 -7.78665e-028   
     length 1.71346   
     axis 1.91374e-015 -90 -90   XYZ
    dof ry
    limits (-180.0 0.0)
  end
  begin
     id 28
     name rhand
     direction -1 -4.48967e-011 -1.55733e-027   
     length 0.740957   
     axis 9.9371e-016 -90 -90   XYZ
    dof rx rz
    limits (-90.0 90.0)
           (-45.0 45.0)
  end
  begin
     id 29
     name rfingers
     direction -1 -4.48949e-011 -3.11466e-027   
     length 0.597378   
     axis 1.98742e-015 -90 -90   XYZ
    dof rx
    limits (0.0 90.0)
  end
  begin
     id 30
     name rthumb
     direction -0.707107 -6.34931e-011 0.707107   
     length 0.857719   
     axis -90 -45 -2.85299e-015   XYZ
    dof rx rz
    limits (-45.0 45.0)
           (-45.0 45.0)
  end
:hierarchy
  begin
    root lhipjoint rhipjoint lowerback
    lhipjoint lfemur
    lfemur ltibia
    ltibia lfoot
    lfoot ltoes
    rhipjoint rfemur
    rfemur rtibia
    rtibia rfoot
    rfoot rtoes
    lowerback upperback
    upperback thorax
    thorax lowerneck lclavicle rclavicle
    lowerneck upperneck
    upperneck head
    lclavicle lhumerus
    lhumerus lradius
    lradius lwrist
    lwrist lhand lthumb
    lhand lfingers
    rclavicle rhumerus
    rhumerus rradius
    rradius rwrist
    rwrist rhand rthumb
    rhand rfingers
  end

#!OML:ASF E:\I on waltz\AllaLogoMonkeySwing\Project 1\Capture day 1\Session 1\Subject1.ASF
:FULLY-SPECIFIED
:DEGREES
342
root -0.794645 17.8797 -2.98421 186.907 110.393 183.799
lowerback 7.98059 -0.738427 -6.7328
upperback 1.28221 -1.50356 0.787776
thorax -2.94695 -0.668464 4.7646
lowerneck -10.0345 -6.8584 -6.62762
upperneck 33.861 -9.88357 6.68458
head 13.8663 -4.0203 2.42392
rclavicle 4.97583e-014 -2.23136e-014
rhumerus -37.5311 -28.5471 -65.7631
rradius 23.8008
rwrist 6.79425
rhand -6.26504 -37.8532
rfingers 7.12502
rthumb 19.5776 -66.8875
lclavicle 4.97583e-014 -2.23136e-014
lhumerus -47.8945 35.5107 56.7276
lradius 30.1313
lwrist -5.42597
lhand -10.8887 -10.6584
lfingers 7.12502
lthumb 15.1277 18.7687
rfemur -12.6049 -18.4671 14.1539
rtibia 41.9407
rfoot -16.8672 -17.8129
rtoes 17.0088
lfemur 0.312974 8.2783 -18.5032
ltibia 10.6718
lfoot -10.6277 9.54942
ltoes -35.688
343
root -0.800051 17.8732 -3.00943 185.895 113.326 182.826
lowerback 7.68537 -0.601681 -6.46877
upperback 1.20847 -1.28311 0.831355
thorax -2.89324 -0.562883 4.63358
lowerneck -10.0192 -6.62894 -6.6378
upperneck 33.9324 -9.50844 6.47677
head 13.846 -3.89517 2.40129
rclavicle 2.14439e-014 8.64713e-015
rhumerus -37.3985 -28.0098 -66.0266
rradius 24.2964
rwrist 5.57461
rhand -6.6784 -37.8898
rfingers 7.12502
rthumb 19.1801 -66.9641
lclavicle 2.14439e-014 8.64713e-015
lhumerus -48.9582 36.3343 54.9316
lradius 30.1415
lwrist -5.26077
lhand -11.9165 -10.3135
lfingers 7.12502
lthumb 14.1374 19.1855
rfemur -11.7136 -18.9804 14.5074
rtibia 41.9579
rfoot -17.1987 -18.7401
rtoes 18.3608
lfemur 0.651185 9.18933 -18.3826
ltibia 10.7877
lfoot -10.2854 11.197
ltoes -34.8974
344
root -0.812172 17.8671 -3.02401 185.186 116.175 182.053
lowerback 7.36434 -0.514646 -6.27762
upperback 1.12911 -1.13413 0.877129
thorax -2.81866 -0.49252 4.55343
lowerneck -10.1584 -6.34258 -6.34327
upperneck 34.0394 -9.03454 6.01596
head 13.8336 -3.71739 2.23549
rclavicle 6.75868e-015 -9.59136e-015
rhumerus -37.1805 -27.3172 -66.496
rradius 24.9759
rwrist 4.31979
rhand -6.6737 -37.9261
rfingers 7.12502
rthumb 19.1846 -66.9999
lclavicle 6.75868e-015 -9.59136e-015
lhumerus -49.7382 36.5757 53.6564
lradius 30.154
lwrist -4.50809
lhand -12.139 -10.5786
lfingers 7.12502
lthumb 13.9231 18.9353
rfemur -10.7733 -19.3819 14.891
rtibia 41.3881
rfoot -17.0675 -19.1691
rtoes 18.0483
lfemur 0.741741 10.1307 -18.205
ltibia 11.1341
lfoot -10.0119 12.8081
ltoes -34.3727
345
root -0.83002 17.861 -3.03345 184.733 118.927 181.499
lowerback 7.07418 -0.541974 -6.16101
upperback 1.07213 -1.14506 0.913997
thorax -2.71617 -0.502151 4.52159
lowerneck -10.4501 -5.94115 -5.99639
upperneck 34.1394 -8.44183 5.67058
head 13.8506 -3.46571 2.12113
rclavicle -1.42007e-014 4.96962e-017
rhumerus -36.8021 -26.8093 -67.0696
rradius 25.6553
rwrist 3.36595
rhand -6.59392 -38.2178
rfingers 7.12502
rthumb 19.2613 -67.2839
lclavicle -1.42007e-014 4.96962e-017
lhumerus -50.3985 36.6903 52.5341
lradius 30.1481
lwrist -4.11227
lhand -12.5494 -10.2793
lfingers 7.12502
lthumb 13.5275 19.2613
rfemur -9.71957 -19.6329 15.2288
rtibia 40.1586
rfoot -16.0029 -19.2816
rtoes 13.9551
lfemur 0.670075 11.0037 -18.0693
ltibia 11.6876
lfoot -9.89945 14.5156
ltoes -33.3328
346
root -0.849848 17.8524 -3.04271 184.858 121.63 181.63
lowerback 6.8911 -0.568119 -6.25723
upperback 1.00594 -1.18111 0.826643
thorax -2.67823 -0.51987 4.48472
lowerneck -10.7171 -5.54998 -5.63154
upperneck 34.197 -7.88556 5.37398
head 13.8534 -3.22315 2.01737
rclavicle 6.21823e-014 8.34896e-015
rhumerus -36.589 -26.6741 -67.5091
rradius 26.357
rwrist 2.73663
rhand -6.62738 -38.4546
rfingers 7.12502
rthumb 19.2292 -67.5239
lclavicle 6.21823e-014 8.34896e-015
lhumerus -50.8416 36.6009 51.6403
lradius 30.076
lwrist -4.25414
lhand -12.7945 -9.89531
lfingers 7.12502
lthumb 13.2913 19.6609
rfemur -8.50745 -19.7758 15.0946
rtibia 38.2115
rfoot -16.4824 -17.7501
rtoes 7.21761
lfemur 0.513797 11.8324 -18.3567
ltibia 12.4057
lfoot -9.88354 16.2276
ltoes -32.7206
